<?xml version="1.0" standalone="no"?>
<!DOCTYPE svg PUBLIC "-//W3C//DTD SVG 20010904//EN"
 "http://www.w3.org/TR/2001/REC-SVG-20010904/DTD/svg10.dtd">
<svg version="1.0" xmlns="http://www.w3.org/2000/svg"
 width="243.000000pt" height="257.000000pt" viewBox="0 0 243.000000 257.000000"
 preserveAspectRatio="xMidYMid meet">
<g transform="translate(0.000000,257.000000) scale(0.100000,-0.100000)"
fill="#E53935" stroke="none">
<path d="M1037 2335 c-15 -24 -49 -72 -75 -108 -51 -68 -103 -174 -106 -212 0
-12 -7 -22 -15 -21 -15 1 -93 -129 -83 -138 3 -3 -3 -15 -13 -26 -9 -10 -15
-27 -13 -37 3 -10 -1 -24 -9 -31 -9 -9 -13 -40 -13 -103 0 -93 -10 -128 -48
-162 -11 -10 -18 -26 -15 -35 2 -10 -7 -52 -20 -95 -21 -66 -23 -78 -10 -85
12 -7 12 -13 2 -35 -9 -20 -9 -33 -2 -50 7 -15 8 -29 1 -41 -17 -30 -20 -157
-5 -231 l13 -70 11 55 c6 30 19 96 29 145 9 50 18 104 19 120 1 17 7 43 13 58
7 16 12 39 12 51 0 13 9 35 20 49 20 25 20 28 4 58 -15 29 -15 33 0 41 27 15
46 65 46 121 0 36 5 59 15 67 8 7 15 29 15 49 0 20 5 42 12 49 9 9 8 12 -6 12
-13 0 -16 3 -9 13 6 6 13 24 17 39 3 16 20 49 37 75 21 34 29 56 25 75 -3 16
0 31 10 39 8 6 12 20 9 29 -3 9 1 23 10 30 8 7 15 21 15 31 0 10 9 23 20 29
14 7 20 21 20 44 0 45 20 98 65 174 42 72 44 93 2 27z m-87 -194 c0 -5 -9 -19
-21 -32 l-20 -24 17 33 c19 33 24 38 24 23z m-95 -181 c-12 -4 -15 -9 -7 -13
13 -9 7 -48 -9 -57 -6 -4 -10 -10 -10 -14 3 -22 -1 -34 -17 -52 -10 -11 -16
-26 -14 -33 3 -10 0 -11 -9 -5 -12 7 -12 5 0 -9 7 -9 9 -17 3 -17 -5 0 -12
-11 -14 -25 -3 -14 -1 -25 5 -25 5 0 5 -6 -2 -13 -6 -8 -8 -17 -4 -21 14 -14
12 -38 -4 -32 -11 4 -13 2 -9 -9 3 -8 1 -15 -4 -15 -6 0 -8 -22 -6 -52 4 -58
-1 -81 -17 -71 -6 4 -7 1 -2 -6 4 -8 -2 -26 -15 -44 -20 -26 -22 -35 -12 -60
9 -24 8 -34 -6 -56 -9 -14 -19 -28 -22 -31 -3 -3 -6 -18 -8 -35 -4 -53 -8 -74
-15 -80 -4 -3 -5 -2 -2 2 3 3 -2 11 -10 17 -13 10 -13 14 0 40 9 16 12 32 7
35 -11 8 -11 64 0 72 5 3 10 17 10 30 1 13 5 29 10 35 5 7 7 24 4 39 -5 26 -4
26 18 12 22 -15 23 -14 22 8 -1 13 -5 27 -9 31 -8 8 12 36 22 30 3 -2 6 29 6
69 0 60 3 72 15 67 10 -3 9 0 -3 10 -14 10 -17 21 -11 42 3 15 12 30 19 32 7
3 11 16 9 30 -3 29 20 89 38 100 8 5 9 2 5 -10 -4 -10 -3 -15 4 -11 5 4 7 15
4 26 -4 12 -2 19 7 19 10 0 9 3 -2 10 -11 7 -11 10 -2 10 7 0 11 4 7 9 -8 13
24 43 38 34 7 -4 4 -9 -8 -13z m-148 -475 c0 -8 -4 -12 -9 -9 -4 3 -8 9 -8 15
0 5 4 9 8 9 5 0 9 -7 9 -15z m-54 -345 c-3 -11 -10 -23 -16 -27 -5 -3 -8 -2
-5 3 3 5 8 17 11 27 9 24 16 22 10 -3z"/>
<path d="M785 1839 c-3 -4 2 -6 10 -5 21 3 28 13 10 13 -9 0 -18 -4 -20 -8z"/>
<path d="M750 1729 c0 -5 5 -7 10 -4 6 3 10 8 10 11 0 2 -4 4 -10 4 -5 0 -10
-5 -10 -11z"/>
<path d="M1364 2288 c-15 -29 -46 -82 -69 -118 -23 -36 -61 -101 -85 -145 -24
-44 -59 -102 -79 -130 -19 -27 -34 -60 -33 -71 1 -12 -7 -29 -18 -39 -13 -11
-20 -31 -20 -52 0 -20 -10 -49 -25 -70 -13 -20 -22 -39 -20 -43 2 -4 -6 -12
-18 -19 -17 -9 -22 -21 -23 -56 -1 -30 -10 -57 -28 -86 -20 -30 -27 -50 -23
-72 3 -25 -2 -38 -25 -60 -26 -26 -27 -31 -14 -46 13 -14 13 -19 0 -35 -16
-23 -19 -62 -4 -71 6 -4 4 -15 -6 -30 -12 -18 -13 -28 -5 -44 8 -14 8 -22 0
-27 -7 -4 -9 -20 -6 -40 4 -21 1 -37 -8 -44 -8 -6 -11 -18 -8 -26 3 -8 0 -14
-6 -14 -8 0 -9 -5 -1 -19 13 -25 13 -97 -1 -122 -7 -14 -4 -65 11 -187 27
-214 33 -236 41 -157 4 33 7 99 8 146 1 64 5 90 16 99 17 14 20 40 5 40 -15 0
-12 16 5 33 11 11 11 17 3 19 -9 3 -9 12 1 36 7 17 10 35 7 40 -3 5 8 48 24
96 16 49 34 131 41 189 9 82 18 115 45 168 36 71 40 84 24 74 -15 -9 -13 3 20
94 17 46 30 96 30 112 0 15 11 40 24 56 20 23 22 31 13 56 -8 24 -7 31 7 39 9
5 16 21 16 38 0 17 14 46 34 73 21 27 33 53 30 64 -5 17 86 257 123 326 10 18
17 36 18 40 0 4 6 12 14 16 9 6 10 11 2 15 -6 4 -21 -15 -37 -46z m-149 -357
c3 -6 -2 -14 -11 -19 -9 -5 -15 -12 -15 -15 3 -19 0 -25 -13 -30 -10 -4 -14 0
-13 13 1 10 5 16 11 13 5 -4 7 1 3 11 -4 10 -3 15 3 11 6 -3 10 1 10 9 0 18
15 21 25 7z m-61 -101 c1 -17 -4 -36 -11 -42 -9 -7 -12 -25 -9 -50 4 -29 0
-44 -14 -58 -10 -10 -22 -39 -25 -64 -4 -25 -12 -46 -17 -46 -6 0 -8 -6 -5
-14 3 -8 -2 -25 -12 -38 -13 -17 -17 -40 -17 -85 1 -33 -2 -59 -6 -56 -5 2 -8
-3 -8 -13 0 -9 -9 -32 -21 -51 -17 -27 -24 -31 -35 -22 -11 9 -11 6 1 -17 16
-31 20 -58 8 -51 -5 3 -9 -18 -9 -46 -1 -59 -20 -152 -37 -182 -6 -11 -10 -23
-9 -27 1 -4 -3 -20 -9 -35 -7 -15 -11 -41 -10 -57 1 -28 -13 -56 -30 -56 -5 0
-9 10 -9 23 0 18 2 19 10 7 6 -9 10 -10 10 -3 0 6 -4 15 -10 18 -14 8 -13 51
2 78 10 20 10 21 -6 8 -15 -12 -16 -12 -10 5 4 10 11 24 15 29 4 6 10 38 12
71 2 34 8 67 12 74 6 9 4 11 -6 6 -8 -4 -6 -1 3 7 14 11 15 16 5 27 -9 10 -9
11 1 6 6 -4 12 -2 12 3 0 6 -7 11 -16 11 -12 0 -14 3 -6 13 10 12 12 17 12 38
0 5 4 8 9 5 5 -4 8 2 6 11 -2 10 -4 18 -5 18 -1 0 -3 8 -5 18 -2 13 1 17 11
13 9 -4 12 -2 8 5 -3 6 4 21 16 34 16 17 18 25 9 30 -8 6 -10 4 -4 -5 5 -9 4
-11 -3 -6 -9 5 -9 13 -2 27 6 11 8 24 5 29 -8 13 20 42 30 32 5 -4 5 3 2 16
-4 16 -2 22 6 19 8 -3 12 9 11 37 0 26 6 48 18 62 10 11 20 30 23 42 2 12 13
34 23 49 24 33 39 79 24 69 -6 -4 -8 2 -5 14 3 11 9 17 14 15 10 -7 31 30 22
39 -4 3 0 17 7 31 16 30 21 27 24 -15z m-84 -334 c0 -3 -4 -8 -10 -11 -5 -3
-10 -1 -10 4 0 6 5 11 10 11 6 0 10 -2 10 -4z m-170 -697 c0 -5 -3 -8 -7 -6
-5 3 -9 -6 -9 -19 -1 -13 1 -22 5 -19 10 6 7 -27 -3 -44 -12 -18 -25 4 -21 35
1 13 -2 24 -7 24 -5 0 -4 9 2 20 11 21 40 28 40 9z"/>
<path d="M1133 1805 c0 -8 4 -12 9 -9 5 3 6 10 3 15 -9 13 -12 11 -12 -6z"/>
<path d="M1103 1706 c-10 -11 -9 -16 5 -21 9 -3 13 -3 9 1 -4 4 -2 13 4 21 15
17 -2 16 -18 -1z"/>
<path d="M1020 1570 c-9 -6 -10 -10 -3 -10 6 0 15 5 18 10 8 12 4 12 -15 0z"/>
<path d="M934 1148 c0 -10 1 -18 3 -18 1 0 7 8 12 18 7 13 6 19 -2 19 -7 0
-13 -9 -13 -19z"/>
<path d="M1285 2231 c-3 -5 -2 -12 3 -15 5 -3 9 1 9 9 0 17 -3 19 -12 6z"/>
<path d="M883 2195 c0 -8 4 -12 9 -9 5 3 6 10 3 15 -9 13 -12 11 -12 -6z"/>
<path d="M1243 2155 c0 -8 4 -12 9 -9 5 3 6 10 3 15 -9 13 -12 11 -12 -6z"/>
<path d="M1601 2063 c-1 -6 -16 -30 -35 -52 -19 -23 -58 -83 -87 -134 -29 -50
-58 -99 -66 -108 -7 -9 -11 -23 -7 -32 3 -9 -3 -24 -15 -36 -12 -12 -21 -27
-21 -35 0 -8 -4 -18 -10 -21 -5 -3 -10 -20 -10 -36 0 -36 -16 -69 -33 -69 -8
0 -11 -14 -9 -45 3 -32 -2 -55 -16 -78 -19 -34 -19 -34 0 -46 11 -7 23 -9 26
-5 4 4 1 9 -5 11 -9 3 -6 17 12 47 15 25 22 50 19 63 -4 12 1 32 10 45 9 12
16 32 16 43 0 16 2 17 10 5 8 -13 10 -13 10 2 0 9 -4 19 -10 23 -14 8 0 35 19
36 9 0 11 3 5 5 -9 4 -8 13 3 35 8 16 19 27 24 24 5 -4 9 -8 9 -11 0 -3 -5 -2
-12 2 -8 5 -9 2 -5 -9 4 -10 2 -17 -4 -17 -6 0 -9 -6 -6 -14 3 -8 3 -17 -1
-20 -3 -4 -7 -21 -8 -39 -5 -57 -14 -96 -26 -103 -8 -5 -9 -1 -4 11 5 15 4 16
-9 5 -11 -9 -12 -16 -5 -25 8 -9 8 -15 0 -20 -6 -4 -7 -12 -2 -18 12 -17 7
-58 -9 -68 -8 -4 -15 -13 -15 -19 -1 -5 -3 -13 -4 -17 -2 -5 -4 -15 -4 -23 -1
-8 -7 -14 -12 -13 -6 1 -10 -12 -9 -28 1 -16 -2 -32 -7 -35 -4 -3 -8 -11 -8
-17 0 -7 4 -6 11 3 9 12 10 12 5 -3 -3 -10 -6 -21 -6 -24 0 -3 -8 1 -17 8 -17
13 -17 13 0 -7 19 -23 23 -39 7 -29 -7 4 -9 -2 -4 -19 4 -17 2 -26 -6 -26 -8
0 -10 -8 -7 -22 7 -23 -8 -58 -24 -58 -6 0 -8 4 -5 9 4 5 2 11 -3 13 -5 1 -4
14 2 28 6 14 11 41 12 60 2 54 15 100 28 100 8 0 9 3 1 8 -14 9 -27 45 -14 37
6 -3 10 1 10 9 0 8 7 19 16 24 12 7 13 11 4 17 -20 13 -51 -29 -57 -76 -2 -24
-7 -51 -10 -59 -3 -8 -5 -34 -4 -56 2 -26 -3 -47 -13 -56 -11 -12 -13 -24 -6
-54 5 -21 12 -87 16 -146 3 -60 9 -108 13 -108 4 0 14 52 21 116 11 97 17 118
31 121 14 4 17 12 13 32 -3 15 1 52 10 81 9 30 16 70 16 90 0 24 7 43 20 55
18 17 19 20 5 28 -14 7 -12 12 10 38 24 29 30 51 26 93 -1 11 5 26 14 35 8 9
17 44 20 76 4 33 12 74 18 90 6 17 10 37 9 46 -2 9 4 22 13 29 8 7 15 25 15
41 0 25 7 33 30 31 3 0 5 18 6 41 1 41 35 122 76 180 11 15 17 33 15 40 -4 8
-6 8 -6 0z"/>
<path d="M1810 1757 c0 -7 -18 -34 -40 -61 -22 -26 -40 -54 -40 -61 0 -8 -14
-27 -31 -44 -18 -18 -29 -38 -25 -46 3 -9 -3 -19 -15 -25 -13 -7 -18 -17 -14
-29 3 -11 -3 -25 -15 -36 -15 -13 -17 -21 -9 -26 9 -5 7 -12 -5 -25 -13 -12
-17 -27 -13 -50 4 -21 1 -34 -8 -37 -8 -4 -11 -15 -7 -32 3 -18 -3 -36 -16
-55 -15 -20 -18 -30 -9 -33 8 -3 7 -10 -6 -25 -10 -11 -14 -23 -9 -26 5 -3 7
-38 5 -78 -3 -40 0 -91 5 -113 8 -31 10 -34 11 -14 1 14 10 61 22 105 11 43
21 88 22 99 1 11 7 26 14 33 6 7 15 34 18 60 4 26 10 56 15 67 19 46 23 62 21
93 -2 18 2 32 9 32 6 0 8 5 5 10 -4 6 3 26 15 45 12 20 19 42 16 50 -3 9 1 15
11 15 12 0 14 7 10 35 -3 19 -1 37 4 41 9 5 54 86 71 127 4 9 3 17 -2 17 -6 0
-10 -6 -10 -13z m-102 -213 c0 -17 -3 -22 -8 -13 -5 6 -6 18 -3 26 8 19 11 16
11 -13z m-27 -47 c-10 -9 -11 -8 -5 6 3 10 9 15 12 12 3 -3 0 -11 -7 -18z
m-36 -107 c-3 -5 -2 -10 4 -10 13 0 5 -40 -10 -54 -9 -8 -10 -7 -6 6 3 9 1 18
-5 20 -8 3 -7 10 1 26 6 12 14 22 17 22 3 0 2 -4 -1 -10z m-21 -137 c-7 -45
-11 -53 -27 -52 -9 0 -9 2 1 6 6 2 12 19 12 37 0 29 6 46 17 46 1 0 0 -17 -3
-37z"/>
<path d="M1645 1599 c-4 -6 -5 -12 -2 -15 2 -3 7 2 10 11 7 17 1 20 -8 4z"/>
<path d="M1200 1376 c0 -2 8 -10 18 -17 15 -13 16 -12 3 4 -13 16 -21 21 -21
13z"/>
<path d="M790 1306 c0 -2 8 -10 18 -17 15 -13 16 -12 3 4 -13 16 -21 21 -21
13z"/>
<path d="M574 1266 c1 -8 5 -18 8 -22 4 -3 5 1 4 10 -1 8 -5 18 -8 22 -4 3 -5
-1 -4 -10z"/>
<path d="M1250 1101 c0 -6 4 -13 10 -16 6 -3 7 1 4 9 -7 18 -14 21 -14 7z"/>
<path d="M1656 1097 c3 -10 9 -15 12 -12 3 3 0 11 -7 18 -10 9 -11 8 -5 -6z"/>
<path d="M929 673 c-13 -16 -12 -17 4 -4 16 13 21 21 13 21 -2 0 -10 -8 -17
-17z"/>
</g>
</svg>
